<svg id="Capa_1" enable-background="new 0 0 512 512" height="512" viewBox="0 0 512 512" width="512" xmlns="http://www.w3.org/2000/svg"><g><g><path clip-rule="evenodd" d="m501.991 223.862s-116.406-85.252-199.814-85.252c-87.745 0-164.02 55.88-202.885 90.532-12.71-32.438-47.797-55.751-89.095-55.751v1.579c55.967 78.693 0 163.64 0 163.64 41.299 0 76.386-23.313 89.095-55.751 38.865 34.652 115.14 90.532 202.885 90.532 88.248 0 199.814-87.817 199.814-87.817l-41.793-29.574z" fill="#ccf5fc" fill-rule="evenodd"/></g><g><circle cx="393.183" cy="213.658" r="10"/><path d="m507.809 277.35-30.646-21.686 30.969-23.816c5.235-4.026 5.14-12.211-.189-16.113-1.211-.887-30.118-21.97-69.801-43.366-53.942-29.086-99.688-43.833-135.966-43.833-84.28 0-158.007 49.458-199.595 84.433-17.778-30.168-53.223-49.652-92.385-49.652-8.697 0-12.994 10.761-8.21 17.491 21.353 30.023 27.919 64.551 19.515 102.625-6.418 29.079-19.594 49.446-19.718 49.634-4.336 6.582.557 15.617 8.413 15.617 39.162 0 74.607-19.485 92.385-49.652 41.589 34.976 115.315 84.433 199.595 84.433 90.694 0 201.378-86.301 206.045-89.975 5.207-4.098 4.995-12.313-.412-16.14zm-401.814-2.011c-5.155-4.597-13.571-2.569-16.084 3.844-9.633 24.587-33.467 42.454-62.029 47.738 4.479-9.638 9.626-22.844 13.13-38.408 8.326-36.981 3.935-72.341-12.653-103.343 28.35 5.394 51.973 23.199 61.552 47.648 2.515 6.416 10.931 8.441 16.084 3.844 36.852-32.857 111.342-87.977 196.181-87.977 11.546 0 23.829 1.764 36.387 4.766-5.461 9.698-12.989 24.836-19.146 43.712-.876.316-70.347 50.691-70.347 50.691-2.605 1.896-4.146 4.924-4.146 8.146s1.541 6.249 4.146 8.146l67.042 48.79c4.864 16.061 12.095 31.455 21.655 46.007-12.108 2.766-24.088 4.374-35.592 4.374-84.838-.001-159.328-55.121-196.18-87.978zm205.844-48.244c-3.478 19.313-4.096 38.2-1.895 56.432l-37.824-27.527zm46.436 126.15c-27.929-39.075-36.147-83.861-24.395-133.227 6.762-28.404 18.618-50.671 24.689-60.862 51.74 16.974 104.095 50.107 126.356 65.119l-30.869 23.739c-5.288 4.067-5.124 12.356.322 16.209l30.442 21.542c-21.909 15.728-73.612 50.317-126.545 67.48z"/><path d="m206.043 295.969c-31.891-15.7-51.273-34.563-51.514-34.8-3.957-3.904-10.329-3.865-14.238.089-3.912 3.956-3.877 10.334.079 14.247.871.861 21.73 21.289 56.774 38.541 1.431.704 2.948 1.038 4.442 1.038 3.717 0 7.293-2.066 9.046-5.626 2.457-4.993.402-11.032-4.589-13.489z"/><circle cx="243.915" cy="321.231" r="10"/></g></g></svg>